<svg width="53" height="30" viewBox="0 0 53 30" fill="none" xmlns="http://www.w3.org/2000/svg">
<path d="M38.4614 12.2354H26.3157V29.9086H38.4614V12.2354Z" fill="white"/>
<path fill-rule="evenodd" clip-rule="evenodd" d="M0 7.62939e-05H12.1457V17.7628C12.1457 24.4707 6.70791 29.9086 0 29.9086V7.62939e-05Z" fill="white"/>
<path fill-rule="evenodd" clip-rule="evenodd" d="M52.6316 0V12.2354H38.5512C31.7938 12.2354 26.3158 6.75741 26.3158 0L52.6316 0Z" fill="white"/>
<path d="M45.884 25.8301C48.8652 25.8301 51.2821 23.3955 51.2821 20.3922C51.2821 17.389 48.8652 14.9543 45.884 14.9543C42.9027 14.9543 40.4858 17.389 40.4858 20.3922C40.4858 23.3955 42.9027 25.8301 45.884 25.8301Z" fill="white"/>
<path d="M19.568 21.7517C22.5493 21.7517 24.9661 19.3171 24.9661 16.3138C24.9661 13.3105 22.5493 10.8759 19.568 10.8759C16.5867 10.8759 14.1699 13.3105 14.1699 16.3138C14.1699 19.3171 16.5867 21.7517 19.568 21.7517Z" fill="white"/>
</svg>
